<svg xmlns="http://www.w3.org/2000/svg" xmlns:xlink="http://www.w3.org/1999/xlink" width="178.405" height="154.911" viewBox="0 0 178.405 154.911">
  <defs>
    <linearGradient id="linear-gradient" x1="-0.053" y1="0.5" x2="1.05" y2="0.5" gradientUnits="objectBoundingBox">
      <stop offset="0" stop-color="#babcbe"/>
      <stop offset="0.487" stop-color="#fff"/>
      <stop offset="1" stop-color="#babcbe"/>
    </linearGradient>
    <linearGradient id="linear-gradient-2" x1="-107.454" y1="0.499" x2="10.2" y2="0.499" gradientUnits="objectBoundingBox">
      <stop offset="0" stop-color="#1e1e1e"/>
      <stop offset="0.487" stop-color="#006262"/>
      <stop offset="1" stop-color="#1e1e1e"/>
    </linearGradient>
    <linearGradient id="linear-gradient-3" x1="-470.027" y1="0.484" x2="75.567" y2="0.484" gradientUnits="objectBoundingBox">
      <stop offset="0.005" stop-color="#00bcff"/>
      <stop offset="0.5" stop-color="#39b99d"/>
      <stop offset="1" stop-color="#88c734"/>
    </linearGradient>
    <linearGradient id="linear-gradient-4" x1="-161.425" y1="0.466" x2="984.183" y2="0.466" xlink:href="#linear-gradient-2"/>
    <linearGradient id="linear-gradient-5" x1="-12.525" y1="0.494" x2="69.1" y2="0.494" xlink:href="#linear-gradient-2"/>
    <linearGradient id="linear-gradient-6" x1="-13.468" y1="0.496" x2="54.512" y2="0.496" xlink:href="#linear-gradient-3"/>
    <linearGradient id="linear-gradient-7" x1="-58.438" y1="0.455" x2="197.561" y2="0.455" xlink:href="#linear-gradient-3"/>
    <linearGradient id="linear-gradient-8" x1="-0.077" y1="0.5" x2="1.087" y2="0.5" xlink:href="#linear-gradient"/>
    <linearGradient id="linear-gradient-9" x1="-0.078" y1="0.5" x2="1.063" y2="0.5" xlink:href="#linear-gradient"/>
    <linearGradient id="linear-gradient-10" x1="-181.18" y1="0.5" x2="1007.181" y2="0.5" xlink:href="#linear-gradient-2"/>
    <linearGradient id="linear-gradient-11" x1="-18.575" y1="0.5" x2="113.719" y2="0.5" xlink:href="#linear-gradient-3"/>
  </defs>
  <g id="Grupo_4" data-name="Grupo 4" transform="translate(-511.025 -45.965)">
    <g id="Grupo_3" data-name="Grupo 3">
      <path id="Trazado_20" data-name="Trazado 20" d="M575.734,46.066c-35.163-2.3-64.709,35.337-64.709,59.185,0,22.387,12.372,29.527,12.372,29.527l-.009-.008c-.092-.087-3.948-3.8-3.948-13.026,0-7.554,3.492-15.474,9.528-22.859C537.948,87.9,552.563,78.1,569.741,72.47c17.544-5.749,18.683-12.017,18.683-15.684C588.424,50.058,582.513,46.509,575.734,46.066Z" fill="#fff"/>
      <path id="Trazado_21" data-name="Trazado 21" d="M561.018,106.987c21.913-21.306,59.375-27.592,78.737-39,5.459-3.214,7.447-4.377,7.979-6,1.539-4.71-5.255-5.285-5.808-5.324l-.073,0c-17.532,0-42.511,13.059-67.839,34.146-18.424,15.34-25.7,29.882-38.551,29.862-10.671-.016-15.234-9.3-6.495-21.782-6.036,7.385-9.528,15.305-9.528,22.859,0,9.228,3.856,12.939,3.948,13.026a22.192,22.192,0,0,0,13.2,3.814,31.618,31.618,0,0,0,14.464-3.207,26.3,26.3,0,0,1-.595-5.653C550.455,122.1,553.788,114.016,561.018,106.987Z" fill="url(#linear-gradient)"/>
      <path id="Trazado_22" data-name="Trazado 22" d="M642.08,56.668c.412,0,.812.023,1.206.052C642.892,56.688,642.489,56.673,642.08,56.668Z" fill="url(#linear-gradient-2)"/>
      <path id="Trazado_23" data-name="Trazado 23" d="M641.886,56.659l.04,0c.053,0,.1,0,.154.006C642.015,56.666,641.951,56.659,641.886,56.659Z" fill="url(#linear-gradient-3)"/>
      <path id="Trazado_24" data-name="Trazado 24" d="M571.928,149.327l-.119,0Z" fill="url(#linear-gradient-4)"/>
      <path id="Trazado_25" data-name="Trazado 25" d="M574.457,149.391c.247,0,.492-.009.74-.012-.525,0-1.086,0-1.674-.013C573.837,149.372,574.135,149.391,574.457,149.391Z" fill="url(#linear-gradient-5)"/>
      <path id="Trazado_26" data-name="Trazado 26" d="M573.523,149.366c-.535-.009-1.078-.014-1.6-.039C572.48,149.348,573.011,149.36,573.523,149.366Z" fill="url(#linear-gradient-6)"/>
      <path id="Trazado_27" data-name="Trazado 27" d="M575.62,149.379l-.038-.008-.385.008Z" fill="url(#linear-gradient-7)"/>
      <path id="Trazado_28" data-name="Trazado 28" d="M643.286,56.72c-.394-.029-.794-.049-1.206-.052-.052,0-.1-.006-.154-.006.553.039,7.347.614,5.808,5.324-.532,1.626-2.52,2.789-7.979,6-19.362,11.406-56.824,17.692-78.737,39-7.23,7.029-10.563,15.109-10.563,22.737a26.3,26.3,0,0,0,.595,5.653,16.7,16.7,0,0,0,2.6,6.148c4.543,6.347,12.3,7.563,18.16,7.8l.119,0c.517.025,1.06.03,1.6.039.588.009,1.149.011,1.674.013l.385-.008c-.66-.112-10.1-1.825-13.194-9.048a9.964,9.964,0,0,1-.845-3.945c0-3.885,2.65-8.056,7.567-12.4,9.551-8.433,27.666-17.5,51.612-26.361C654.826,85,656.585,77.45,656.585,69.878,656.585,63.432,651.718,57.333,643.286,56.72Z" fill="#fff"/>
      <path id="Trazado_29" data-name="Trazado 29" d="M603.519,130.339c13.789-10.868,44.4-17.631,58.718-24.163C686.738,95,678.2,88.532,674.918,88.236c-.088,0-.167-.008-.257-.008-25.128,0-65.39,45.456-99.318,45.456-7.089,0-9.869-5.033-6.233-9.7-4.917,4.34-7.567,8.511-7.567,12.4a9.964,9.964,0,0,0,.845,3.945c3.1,7.223,12.534,8.936,13.194,9.048a61.982,61.982,0,0,0,16.03-2.51A34.777,34.777,0,0,1,603.519,130.339Z" fill="url(#linear-gradient-8)"/>
      <path id="Trazado_30" data-name="Trazado 30" d="M603.647,149.458c-4.236,3.291-6.718,6.957-6.718,11.277a10.4,10.4,0,0,0,4.121,8,27.154,27.154,0,0,0,9.471,1.485c10.194,0,23.153-2.99,34.971-7.39,2.2-5.295,5.96-10.568,12.166-15.766,15.18-12.714,16.912-14.778,16.912-16.886a3.175,3.175,0,0,0-2.078-2.906,8.211,8.211,0,0,0-5.15,1.232c-11.362,7.426-27.32,31.825-57.566,31.825C602.955,160.326,597.448,154.479,603.647,149.458Z" fill="url(#linear-gradient-9)"/>
      <path id="Trazado_31" data-name="Trazado 31" d="M604.477,148.833c-.024.018-.05.036-.074.055C604.428,148.869,604.451,148.851,604.477,148.833Z" fill="url(#linear-gradient-10)"/>
      <path id="Trazado_32" data-name="Trazado 32" d="M672.491,127.268h0a3.175,3.175,0,0,1,2.078,2.906c0,2.108-1.732,4.172-16.912,16.886-6.206,5.2-9.967,10.471-12.166,15.766a38.851,38.851,0,0,0-2.776,15.191c0,14.49,7.568,22.858,15.762,22.858a7.6,7.6,0,0,0,6.639-10.886c-3.912-8.086-6.8-14.332-6.8-21.2,0-16.2,20.626-23.354,21.262-32.637C679.915,131.289,676.662,127.234,672.491,127.268Z" fill="#fff"/>
      <path id="Trazado_33" data-name="Trazado 33" d="M603.647,149.458c.246-.191.5-.382.756-.57l-.035.026C604.109,149.094,603.871,149.276,603.647,149.458Z" fill="url(#linear-gradient-11)"/>
      <path id="Trazado_34" data-name="Trazado 34" d="M674.825,88.228l.093.008c3.277.3,11.82,6.761-12.681,17.94-14.317,6.532-44.929,13.295-58.718,24.163a34.777,34.777,0,0,0-11.907,16.522,21.168,21.168,0,0,0-1,6.184c0,6.878,3.556,13.435,10.537,15.749-.033-.017-.068-.043-.1-.062a10.4,10.4,0,0,1-4.121-8c0-4.32,2.482-7.986,6.718-11.277.224-.182.462-.364.721-.544l.035-.026c.024-.019.05-.037.074-.055,14.157-10.3,45.568-16.962,71.043-28.75,13.742-6.358,13.91-15.567,13.91-18.009C689.43,93,684.932,87.838,674.825,88.228Z" fill="#fff"/>
    </g>
  </g>
</svg>
