<svg xmlns="http://www.w3.org/2000/svg" xmlns:xlink="http://www.w3.org/1999/xlink" width="80" height="69.466" viewBox="0 0 80 69.466">
  <defs>
    <linearGradient id="linear-gradient" x1="0.065" y1="0.733" x2="0.81" y2="0.083" gradientUnits="objectBoundingBox">
      <stop offset="0.005" stop-color="#00bcff"/>
      <stop offset="0.5" stop-color="#88c89c"/>
      <stop offset="1" stop-color="#88c734"/>
    </linearGradient>
    <linearGradient id="linear-gradient-2" x1="-0.053" y1="0.5" x2="1.05" y2="0.5" gradientUnits="objectBoundingBox">
      <stop offset="0" stop-color="#1e1e1e"/>
      <stop offset="0.487" stop-color="#006262"/>
      <stop offset="1" stop-color="#1e1e1e"/>
    </linearGradient>
    <linearGradient id="linear-gradient-3" x1="-107.551" y1="0.516" x2="10.208" y2="0.516" xlink:href="#linear-gradient-2"/>
    <linearGradient id="linear-gradient-4" x1="-469.52" y1="0.498" x2="75.478" y2="0.498" gradientUnits="objectBoundingBox">
      <stop offset="0.005" stop-color="#00bcff"/>
      <stop offset="0.5" stop-color="#39b99d"/>
      <stop offset="1" stop-color="#88c734"/>
    </linearGradient>
    <linearGradient id="linear-gradient-5" x1="-163.704" y1="0.377" x2="998.037" y2="0.377" xlink:href="#linear-gradient-2"/>
    <linearGradient id="linear-gradient-6" x1="-12.524" y1="0.516" x2="69.094" y2="0.516" xlink:href="#linear-gradient-2"/>
    <linearGradient id="linear-gradient-7" x1="-13.457" y1="0.487" x2="54.469" y2="0.487" xlink:href="#linear-gradient-4"/>
    <linearGradient id="linear-gradient-8" x1="-58.416" y1="0.491" x2="197.482" y2="0.491" xlink:href="#linear-gradient-4"/>
    <linearGradient id="linear-gradient-9" x1="0.087" y1="0.909" x2="0.836" y2="0.052" xlink:href="#linear-gradient-4"/>
    <linearGradient id="linear-gradient-10" x1="-0.077" y1="0.5" x2="1.087" y2="0.5" xlink:href="#linear-gradient-2"/>
    <linearGradient id="linear-gradient-11" x1="-0.078" y1="0.5" x2="1.063" y2="0.5" xlink:href="#linear-gradient-2"/>
    <linearGradient id="linear-gradient-12" x1="-182.619" y1="0.506" x2="1015.151" y2="0.506" xlink:href="#linear-gradient-2"/>
    <linearGradient id="linear-gradient-13" x1="-0.053" y1="0.856" x2="1.078" y2="0.289" xlink:href="#linear-gradient-4"/>
    <linearGradient id="linear-gradient-14" x1="-18.574" y1="0.501" x2="113.711" y2="0.501" xlink:href="#linear-gradient-4"/>
    <linearGradient id="linear-gradient-15" x1="0.123" y1="0.931" x2="0.829" y2="0.065" xlink:href="#linear-gradient-4"/>
  </defs>
  <g id="Grupo_3" data-name="Grupo 3" transform="translate(-540 -6775.935)">
    <g id="Grupo_2" data-name="Grupo 2">
      <g id="Grupo_1" data-name="Grupo 1">
        <path id="Trazado_4" data-name="Trazado 4" d="M569.016,6775.98c-15.767-1.032-29.016,15.846-29.016,26.54,0,10.039,5.547,13.241,5.547,13.241l0,0c-.041-.04-1.77-1.7-1.77-5.841,0-3.388,1.566-6.939,4.272-10.252,4.027-4.926,10.582-9.319,18.284-11.844,7.867-2.578,8.378-5.388,8.378-7.032C574.707,6777.772,572.056,6776.179,569.016,6775.98Z" fill="url(#linear-gradient)"/>
        <path id="Trazado_5" data-name="Trazado 5" d="M562.417,6803.3c9.827-9.554,26.625-12.373,35.308-17.488,2.447-1.44,3.339-1.962,3.577-2.692.691-2.111-2.356-2.369-2.6-2.387h-.033c-7.861,0-19.063,5.856-30.419,15.311-8.263,6.878-11.526,13.4-17.288,13.39-4.785-.006-6.831-4.169-2.913-9.768-2.706,3.313-4.272,6.864-4.272,10.252,0,4.137,1.729,5.8,1.77,5.841a9.948,9.948,0,0,0,5.918,1.71,14.154,14.154,0,0,0,6.487-1.439,11.806,11.806,0,0,1-.268-2.533A14.3,14.3,0,0,1,562.417,6803.3Z" fill="url(#linear-gradient-2)"/>
        <path id="Trazado_6" data-name="Trazado 6" d="M598.768,6780.735c.184,0,.363.01.54.023C599.131,6780.745,598.95,6780.737,598.768,6780.735Z" fill="url(#linear-gradient-3)"/>
        <path id="Trazado_7" data-name="Trazado 7" d="M598.681,6780.732h.017c.023,0,.046,0,.07,0C598.737,6780.735,598.71,6780.732,598.681,6780.732Z" fill="url(#linear-gradient-4)"/>
        <path id="Trazado_8" data-name="Trazado 8" d="M567.309,6822.285l-.052,0Z" fill="url(#linear-gradient-5)"/>
        <path id="Trazado_9" data-name="Trazado 9" d="M568.443,6822.313c.111,0,.222,0,.333,0-.236,0-.488,0-.751,0C568.166,6822.306,568.3,6822.313,568.443,6822.313Z" fill="url(#linear-gradient-6)"/>
        <path id="Trazado_10" data-name="Trazado 10" d="M568.025,6822.3c-.24,0-.484-.006-.716-.018C567.557,6822.295,567.795,6822.3,568.025,6822.3Z" fill="url(#linear-gradient-7)"/>
        <path id="Trazado_11" data-name="Trazado 11" d="M568.966,6822.308l-.018,0-.172,0Z" fill="url(#linear-gradient-8)"/>
        <path id="Trazado_12" data-name="Trazado 12" d="M599.308,6780.758c-.177-.013-.356-.021-.54-.023-.024,0-.047,0-.07,0,.248.018,3.295.276,2.6,2.387-.238.73-1.13,1.252-3.577,2.692-8.683,5.115-25.481,7.934-35.308,17.488a14.3,14.3,0,0,0-4.737,10.2,11.806,11.806,0,0,0,.268,2.533,7.49,7.49,0,0,0,1.165,2.757c2.038,2.846,5.516,3.392,8.144,3.5l.052,0c.232.012.476.015.716.018.263,0,.515,0,.751,0l.172,0c-.3-.05-4.527-.818-5.916-4.058a4.457,4.457,0,0,1-.379-1.768c0-1.742,1.188-3.613,3.393-5.56,4.283-3.781,12.406-7.847,23.143-11.819,15.293-5.659,16.082-9.045,16.082-12.442C605.271,6783.768,603.089,6781.033,599.308,6780.758Z" fill="url(#linear-gradient-9)"/>
        <path id="Trazado_13" data-name="Trazado 13" d="M581.475,6813.77c6.183-4.874,19.911-7.906,26.331-10.836,10.987-5.012,7.155-7.91,5.686-8.044-.04,0-.074,0-.115,0-11.268,0-29.323,20.384-44.536,20.384-3.179,0-4.425-2.257-2.795-4.352-2.205,1.947-3.393,3.818-3.393,5.56a4.457,4.457,0,0,0,.379,1.768c1.389,3.24,5.62,4.008,5.916,4.058a27.824,27.824,0,0,0,7.188-1.126A15.614,15.614,0,0,1,581.475,6813.77Z" fill="url(#linear-gradient-10)"/>
        <path id="Trazado_14" data-name="Trazado 14" d="M581.533,6822.343c-1.9,1.476-3.012,3.121-3.012,5.057a4.666,4.666,0,0,0,1.848,3.587,12.166,12.166,0,0,0,4.246.666c4.571,0,10.383-1.342,15.682-3.315a18.481,18.481,0,0,1,5.455-7.069c6.807-5.7,7.584-6.627,7.584-7.573a1.421,1.421,0,0,0-.931-1.3,3.667,3.667,0,0,0-2.31.552c-5.095,3.329-12.251,14.27-25.814,14.27C581.223,6827.217,578.753,6824.6,581.533,6822.343Z" fill="url(#linear-gradient-11)"/>
        <path id="Trazado_15" data-name="Trazado 15" d="M581.905,6822.064l-.033.025Z" fill="url(#linear-gradient-12)"/>
        <path id="Trazado_16" data-name="Trazado 16" d="M612.4,6812.393v0a1.421,1.421,0,0,1,.931,1.3c0,.946-.777,1.871-7.584,7.573a18.481,18.481,0,0,0-5.455,7.069,17.441,17.441,0,0,0-1.245,6.812c0,6.5,3.393,10.251,7.068,10.251a3.411,3.411,0,0,0,2.978-4.882c-1.755-3.626-3.05-6.427-3.05-9.5,0-7.265,9.25-10.471,9.535-14.634C615.733,6814.2,614.274,6812.378,612.4,6812.393Z" fill="url(#linear-gradient-13)"/>
        <path id="Trazado_17" data-name="Trazado 17" d="M581.533,6822.343c.111-.085.223-.17.339-.254l-.016.01C581.741,6822.181,581.633,6822.263,581.533,6822.343Z" fill="url(#linear-gradient-14)"/>
        <path id="Trazado_18" data-name="Trazado 18" d="M613.45,6794.887l.042,0c1.469.134,5.3,3.032-5.686,8.044-6.42,2.93-20.148,5.962-26.331,10.836a15.614,15.614,0,0,0-5.339,7.409,9.5,9.5,0,0,0-.447,2.774,7.135,7.135,0,0,0,4.724,7.061c-.014-.007-.03-.019-.044-.027a4.666,4.666,0,0,1-1.848-3.587c0-1.936,1.112-3.581,3.012-5.057.1-.08.208-.162.323-.244l.016-.01.033-.025c6.349-4.618,20.434-7.606,31.857-12.892,6.162-2.851,6.238-6.98,6.238-8.076C620,6797.03,617.983,6794.713,613.45,6794.887Z" fill="url(#linear-gradient-15)"/>
      </g>
    </g>
  </g>
</svg>
